<svg width="1200" height="630" viewBox="0 0 1200 630" xmlns="http://www.w3.org/2000/svg">
  <defs>
    <linearGradient id="bgGradient" x1="0%" y1="0%" x2="100%" y2="100%">
      <stop offset="0%" style="stop-color:#667eea;stop-opacity:1" />
      <stop offset="100%" style="stop-color:#764ba2;stop-opacity:1" />
    </linearGradient>
    <pattern id="pattern" x="0" y="0" width="60" height="60" patternUnits="userSpaceOnUse">
      <circle cx="30" cy="30" r="2" fill="rgba(255,255,255,0.1)" />
    </pattern>
  </defs>
  
  <!-- Background -->
  <rect width="1200" height="630" fill="url(#bgGradient)" />
  <rect width="1200" height="630" fill="url(#pattern)" />
  
  <!-- Center icon -->
  <g transform="translate(600, 315)">
    <!-- Brain icon -->
    <path d="M -60 -30 Q -60 -60 -30 -60 Q 0 -60 0 -30 Q 0 -60 30 -60 Q 60 -60 60 -30 Q 60 0 30 0 Q 30 30 0 30 Q -30 30 -30 0 Q -60 0 -60 -30" 
          fill="none" 
          stroke="white" 
          stroke-width="4" 
          opacity="0.3"/>
    <circle cx="-30" cy="-30" r="8" fill="white" opacity="0.5"/>
    <circle cx="30" cy="-30" r="8" fill="white" opacity="0.5"/>
    <circle cx="0" cy="0" r="8" fill="white" opacity="0.5"/>
  </g>
  
  <!-- Text -->
  <text x="600" y="420" font-family="Arial, sans-serif" font-size="36" font-weight="bold" text-anchor="middle" fill="white">
    تحليل عميق
  </text>
  
  <!-- Decorative elements -->
  <circle cx="100" cy="100" r="50" fill="rgba(255,255,255,0.05)" />
  <circle cx="1100" cy="530" r="70" fill="rgba(255,255,255,0.05)" />
  <circle cx="200" cy="500" r="30" fill="rgba(255,255,255,0.05)" />
  <circle cx="1000" cy="130" r="40" fill="rgba(255,255,255,0.05)" />
</svg> 